<svg width="60" height="25" viewBox="0 0 120 50" fill="none" xmlns="http://www.w3.org/2000/svg">
<g clip-path="url(#clip0_9343_154)">
<path d="M49.2754 17.0464H56.0643V37.4108H60.8394V17.0464H67.6283V12.665H49.2754V17.0464Z" fill="white"/>
<path d="M72.3708 12.1357C71.6442 12.1357 71.0089 12.3985 70.4774 12.9196C69.9459 13.4408 69.6719 14.0934 69.6719 14.8561C69.6719 15.5764 69.9418 16.2078 70.4733 16.7417C71.0048 17.2713 71.64 17.5425 72.3667 17.5425C73.0933 17.5425 73.6913 17.2713 74.2144 16.7417C74.7376 16.212 74.9992 15.5764 74.9992 14.8561C74.9992 14.0934 74.7418 13.4451 74.2311 12.9239C73.7203 12.4027 73.0933 12.14 72.3708 12.14V12.1357Z" fill="white"/>
<path d="M74.691 19.6612H70.0529V37.4112H74.691V19.6612Z" fill="white"/>
<path d="M87.3888 12.665H78.8643V37.4108H87.3888C91.0636 37.4108 93.9826 36.2922 96.067 34.0845C98.1473 31.8769 99.2061 28.8345 99.2061 25.0379C99.2061 21.2413 98.1515 18.1693 96.067 15.9744C93.9826 13.7794 91.0636 12.665 87.3888 12.665ZM83.6393 17.0464H87.2186C89.5937 17.0464 91.3874 17.7498 92.5584 19.1354C93.7335 20.5294 94.3272 22.4659 94.3272 24.8939C94.3272 27.3218 93.7293 29.3388 92.5542 30.8133C91.3833 32.2794 89.5895 33.0252 87.2144 33.0252H83.6352V17.0422L83.6393 17.0464Z" fill="white"/>
<path d="M118.651 26.3727C117.862 25.3939 116.923 24.6905 115.869 24.2837V24.2413C118.078 23.1481 119.195 21.3557 119.195 18.915C119.195 17.021 118.58 15.4871 117.372 14.36C116.164 13.2371 114.382 12.665 112.078 12.665H102.079V37.4108H112.011C114.453 37.4108 116.396 36.8006 117.783 35.5972C119.178 34.3896 119.884 32.6735 119.884 30.4955C119.884 28.771 119.469 27.3854 118.655 26.3727H118.651ZM106.746 22.7032V16.6227H111.455C112.352 16.6227 113.078 16.8939 113.614 17.4277C114.146 17.9616 114.415 18.7074 114.415 19.6481C114.415 20.5888 114.15 21.343 113.627 21.8854C113.103 22.4278 112.352 22.7032 111.384 22.7032H106.742H106.746ZM115.001 30.1439C115.001 31.1311 114.706 31.9362 114.129 32.5379C113.552 33.1396 112.696 33.4447 111.596 33.4447H106.75V26.665H111.596C112.651 26.665 113.494 26.9913 114.096 27.6396C114.698 28.2879 115.005 29.1311 115.005 30.1396L115.001 30.1439Z" fill="white"/>
<path d="M21.2878 0.300913L0.294067 12.6696V37.4026L21.2878 49.7713L42.2775 37.4026V12.6696L21.2878 0.300913Z" fill="#DC150B"/>
<path d="M14.2877 37.4029V20.9157L7.29114 25.0385V16.7928L21.2884 8.54701L28.2849 12.6699L21.2884 16.7928V41.5258L14.2877 37.4029Z" fill="white"/>
<path d="M28.2843 37.4023V20.915L35.2808 16.7921V33.2794L28.2843 37.4023Z" fill="white"/>
</g>
<defs>
<clipPath id="clip0_9343_154">
<rect width="120" height="50" fill="white"/>
</clipPath>
</defs>
</svg>
